<svg width="97" height="72" viewBox="0 0 97 72" fill="none" xmlns="http://www.w3.org/2000/svg">
<g clip-path="url(#clip0_2325_1550)">
<path d="M22.8086 19.6484C33.2309 14.7424 66.1821 14.3378 76.541 20.2129H76.5391C81.8843 34.6073 80.8964 49.4928 75.9365 63.1582C60.7315 66.8294 37.8413 68.0278 22.8086 63.1582C17.7836 49.2073 16.7628 32.2248 22.8086 19.6484ZM32.623 46.3838H40.4639V44.6602H34.4795V43.082H39.0967V41.3574H34.4795V35.5088H40.4639V33.792H32.623V46.3838ZM41.7822 35.5156H45.0986V46.3838H46.9707V35.5156H50.2861V33.792H41.7822V35.5156ZM51.6045 46.3838H53.4531V33.792H51.6045V46.3838ZM61.5693 33.7949C60.6575 33.795 59.77 33.9561 58.9248 34.2871C58.1201 34.603 57.4003 35.05 56.7695 35.6348C56.1486 36.2119 55.6672 36.88 55.3193 37.6348C54.9714 38.4109 54.7891 39.2284 54.7891 40.082C54.7891 40.9356 54.9715 41.7509 55.3193 42.5361C55.6672 43.2895 56.1485 43.9592 56.7695 44.5439C57.4003 45.1211 58.1201 45.5681 58.9248 45.8916C59.7716 46.2151 60.6494 46.3837 61.5693 46.3838C62.4895 46.3838 63.3678 46.2151 64.2051 45.8916C64.9513 45.5909 65.6231 45.1821 66.2197 44.6748L64.9756 43.5205C64.5448 43.8835 64.0635 44.1749 63.5254 44.3906C62.9044 44.6291 62.2489 44.752 61.5693 44.752C60.89 44.7519 60.2449 44.629 59.6143 44.3906C59.0178 44.1522 58.4795 43.814 58.0146 43.3828C57.5497 42.9514 57.1934 42.4587 56.9365 41.9043C56.6797 41.3196 56.5469 40.7119 56.5469 40.0801C56.5469 39.4483 56.6797 38.8484 56.9365 38.2637C57.1934 37.7093 57.5497 37.2175 58.0146 36.7861C58.478 36.3548 59.0176 36.0158 59.6143 35.7773C60.2432 35.5314 60.89 35.4161 61.5693 35.416C62.2488 35.416 62.9044 35.5313 63.5254 35.7773C64.0716 35.993 64.5529 36.2862 64.9756 36.6553V36.6582L66.2197 35.5039C65.6312 34.9799 64.9594 34.5803 64.2051 34.2871C63.3679 33.956 62.4813 33.7949 61.5693 33.7949Z" fill="white"/>
<path fill-rule="evenodd" clip-rule="evenodd" d="M19.2611 1.43676C15.8146 -0.51502 4.85095 -0.379839 1.38335 1.24841C-0.627627 5.42536 -0.289484 11.0665 1.38335 15.6991C6.3856 17.3168 14.0003 16.9188 19.0595 15.6991C20.7095 11.1607 21.0396 6.2167 19.2611 1.43524V1.43676Z" fill="white"/>
<path fill-rule="evenodd" clip-rule="evenodd" d="M96.2852 12.6269C94.2205 11.4482 87.6527 11.5287 85.5751 12.513C84.3705 15.0374 84.5737 18.4473 85.5751 21.2466C88.5713 22.2248 93.1346 21.9833 96.1649 21.2466C97.1533 18.5035 97.35 15.5158 96.2852 12.6254V12.6269Z" fill="white"/>
<path fill-rule="evenodd" clip-rule="evenodd" d="M20.1992 65.8237C18.8466 65.0384 14.5418 65.0916 13.1795 65.7477C12.3894 67.4306 12.5227 69.7014 13.1795 71.5666C15.1433 72.2182 18.1329 72.0572 20.1195 71.5666C20.7682 69.7394 20.8966 67.7481 20.1992 65.8221V65.8237Z" fill="white"/>
<path fill-rule="evenodd" clip-rule="evenodd" d="M81.1005 59.4659C79.2732 58.3951 73.4614 58.4695 71.6244 59.3626C70.5579 61.6546 70.7384 64.7486 71.6244 67.2912C74.2759 68.1782 78.3124 67.9595 80.9948 67.2912C81.8694 64.8018 82.0434 62.089 81.1005 59.4659Z" fill="white"/>
</g>
<defs>
<clipPath id="clip0_2325_1550">
<rect width="97" height="72" fill="white"/>
</clipPath>
</defs>
</svg>
