<svg width="3008" height="1500" viewBox="0 0 3008 1500" fill="none" xmlns="http://www.w3.org/2000/svg">
<path d="M895.812 119.438C792.584 196.868 706.999 289.585 643.458 392.063C618.598 432.013 597.006 473.907 578.894 517.335L578.075 519.349C576.129 523.717 574.253 528.153 572.41 532.657C549.261 589.759 532.605 649.283 522.758 710.107C499.378 701.616 475.432 694.774 451.096 689.632L446.284 688.574C457.605 620.431 476.987 553.875 504.023 490.308L505.15 487.715L505.696 486.418C528.942 430.792 557.381 377.48 590.633 327.191C657.75 226.308 741.214 137.319 837.595 63.8827L895.812 119.438Z" fill="#F4E87C"/>
<path d="M1076.88 1231.06L1179.26 1230.85C1117.25 1316.17 1043.99 1383.05 940.109 1409.36C917.403 1415.68 893.991 1419.12 870.426 1419.6H868.481C719.081 1417.82 604.49 1356.5 527.64 1237.13C523.614 1230.89 519.757 1224.57 516.038 1218.12C490.316 1173.09 470.726 1124.82 457.786 1074.59C438.813 1003.55 430.691 927.482 431.374 851.861C470.106 862.577 496.211 879.366 511.056 903.049C512.635 936.619 516.466 970.046 522.522 1003.1C534.295 1066.75 554.804 1127.08 585.687 1179.6C588.553 1184.51 591.522 1189.32 594.594 1194.1C656.837 1290.88 746.689 1338.69 869.231 1340.09H870.699C887.633 1339.62 904.446 1337.08 920.76 1332.51C982.799 1316.64 1032.93 1280.06 1076.88 1231.06Z" fill="#F4E87C"/>
<path d="M1577.33 396.908C1590.98 374.147 1607.29 347.12 1626.23 318.045V469.731C1521.98 643.768 1418.71 821.218 1318.93 998.054C1311.2 1011.7 1303.44 1025.59 1295.66 1039.72C1289.38 1050.98 1283.12 1062.19 1276.89 1073.33H1185.5C1199.15 1049.75 1212.6 1025.56 1226.21 1001.09C1234.06 986.963 1241.84 972.938 1249.69 959.083C1264.5 932.875 1279.38 906.644 1294.33 880.391C1350.22 782.202 1406.95 684.24 1464.51 586.507C1501.98 522.852 1539.58 459.653 1577.33 396.908Z" fill="#F4E87C"/>
<path d="M2655.2 820.091C2652.15 886.939 2642.08 953.28 2625.13 1018.02C2619.88 1038.32 2614.15 1057.7 2608.07 1076.03C2590.78 1129.64 2569.02 1181.7 2543.03 1231.67C2530.74 1255.18 2521.74 1269.72 2519.35 1273.51C2446.76 1388.41 2351.21 1470.79 2340.36 1479.9V1479.73C2336.95 1482.49 2333.54 1485.15 2330.4 1487.95L2272.38 1432.63C2277.93 1428.2 2283.45 1423.65 2288.93 1418.98C2298.59 1410.79 2385.3 1336.1 2451.64 1231.54L2452.19 1230.68C2458.36 1220.99 2513.24 1131.72 2548.05 997.712C2593.57 822.071 2584.15 645.986 2520.51 488.635C2502.45 443.966 2465.05 361.008 2408.2 281.258C2402.65 273.455 2396.96 265.686 2391.14 257.951C2303.23 143.734 2205.06 83.7086 2099.61 79.5453C2095.38 79.2723 2091.21 79.2723 2086.95 79.2723C1987.68 79.2723 1892.68 125.614 1804.67 216.967C1789.07 233.176 1774.3 250.136 1760.3 267.369H1660.66C1686.97 230.199 1715.94 194.982 1747.34 161.991C1851.01 54.6 1965.26 0 2086.95 0C2092.24 0 2097.39 0 2102.75 0.307125C2232.94 5.46 2351.14 75.9281 2454.24 209.63C2468.91 228.706 2482.53 248.123 2495.19 267.437C2527.15 317.088 2555.21 369.149 2579.1 423.15C2585.14 436.8 2590.22 448.846 2594.39 459.117C2621.84 527.09 2640.33 598.352 2649.36 671.102C2655.52 720.511 2657.47 770.352 2655.2 820.091Z" fill="#F4E87C"/>
<path d="M804.768 32.5208C707.399 107.613 622.904 198.056 554.598 300.3C524.396 345.856 497.942 393.788 475.496 443.624C471.583 452.292 467.795 461.017 464.132 469.798C435.197 536.807 414.282 606.999 401.82 678.916L368.036 671.579C380.865 597.43 402.422 525.06 432.26 455.978C436.969 444.603 441.906 433.33 447.07 422.16C469.139 374.241 494.806 328.063 523.851 284.022C593.565 178.896 679.86 85.7661 779.379 8.25798L804.768 32.5208Z" fill="#F4E87C"/>
<path d="M1233.96 1230.75H1275.63C1199.84 1346.6 1104.8 1449.97 959.801 1486.69C931.743 1494.18 902.904 1498.36 873.874 1499.14H865.343C691.305 1496.55 551.393 1420.86 460.791 1280.23C452.533 1267.4 444.798 1254.22 437.586 1240.68C413.063 1194.58 393.962 1145.8 380.666 1095.31C358.109 1011.36 349.271 921.919 351.557 833.604L385.682 841.248C384.044 925.298 392.916 1010.17 414.791 1089.61C428.241 1139.49 447.722 1187.54 472.803 1232.7C478.24 1242.5 483.985 1252.09 490.036 1261.46C574.257 1392.33 705.023 1462.6 867.731 1464.44C895.934 1464.35 924 1460.52 951.201 1453.07C1078.35 1420.79 1163.66 1334.29 1233.96 1230.75Z" fill="#F4E87C"/>
<path d="M1357.9 1020.34C1445.19 865.614 1535.35 710.346 1626.23 557.363V625.613C1545.59 761.943 1465.84 899.842 1388.38 1037.3L1368.17 1073.4H1328.25L1334.73 1061.76C1342.48 1047.64 1350.26 1033.99 1357.9 1020.34Z" fill="#F4E87C"/>
<path d="M2414.41 1207.04H2414.58C2412.53 1210.28 2410.45 1213.48 2408.37 1216.69C2345.27 1312.65 2263.85 1382.03 2260.27 1385.07C2253.65 1390.7 2246.62 1396.22 2239.79 1401.62L2214.3 1377.32C2222.15 1371.21 2230 1364.93 2237.68 1358.48C2238.5 1357.73 2324.22 1284.6 2385.06 1188.37C2386.73 1185.74 2395.85 1171.07 2408.2 1146.53C2457.44 1048.83 2558.35 794.43 2446.93 518.632C2435.43 490.172 2422.36 461.848 2408.2 434.48C2389.05 397.07 2367.27 361.069 2343.02 326.747C2265.9 218.981 2183.08 162.64 2096.64 159.228C2005.83 155.611 1930.72 200.758 1866.09 267.438H1819.13C1891.14 186.63 1983.58 119.984 2097.87 124.489C2237.78 129.983 2342.75 253.891 2408.4 363.363C2435.56 408.93 2459.21 456.489 2479.18 505.63C2625.13 867.116 2423.08 1193.39 2414.41 1207.04Z" fill="#F4E87C"/>
<path d="M522.76 710.005C512 773.696 508.076 838.354 511.056 902.879C522.385 920.59 527.572 942.123 527.572 967.716C527.65 979.608 525.948 991.444 522.522 1002.83C513.069 1033.85 490.615 1058.18 457.684 1074.49C443.996 1081.1 429.607 1086.15 414.789 1089.54C403.548 1092.17 392.15 1094.08 380.664 1095.24C368.57 1096.53 356.415 1097.15 344.253 1097.12C317.392 1097.49 290.627 1093.84 264.844 1086.3C204.75 1067.63 169.772 1025.69 168.816 966.488H0C3.4125 1115.89 104.491 1217.99 264.844 1242.9C322.166 1251.51 380.506 1250.75 437.584 1240.65C449.619 1238.37 461.335 1235.71 472.733 1232.66C487.449 1228.67 501.91 1223.79 516.038 1218.06C540.766 1208.16 564.163 1195.22 585.687 1179.53C656.018 1127.93 696.388 1049.86 696.388 953.384C696.388 832.206 639.331 753.207 522.76 710.005ZM401.822 678.78C392.225 732.387 386.862 786.665 385.783 841.113L415.472 847.938C421 849.132 426.289 850.429 431.374 851.862C431.909 797.131 436.885 742.534 446.252 688.608L401.822 678.78ZM643.46 392.131C629.574 367.726 611.708 345.812 590.601 327.293C579.377 317.304 567.334 308.275 554.599 300.3C544.702 294.184 534.446 288.668 523.887 283.784C476.794 261.876 420.351 250.205 356.162 250.205C325.529 250.099 294.957 252.968 264.878 258.77C112.271 288.698 13.1722 394.383 13.1722 536.513C13.1722 684.24 98.9624 778.05 262.455 813.506L264.844 814.052L351.487 833.469C352.862 779.12 358.372 724.955 367.97 671.443L299.344 656.531C287.615 653.86 276.068 650.441 264.776 646.293C208.162 625.375 182.023 589.1 182.023 531.224C182.023 476.863 212.735 436.322 264.844 415.779C289.823 405.917 319.683 400.662 353.569 400.662C390.56 400.662 422.16 408.067 447.174 422.024C457.618 427.797 467.189 435.024 475.6 443.489C488.557 456.655 498.308 472.629 504.094 490.172C508.674 503.862 511.294 518.131 511.875 532.555H680.725C679.087 479.047 666.119 431.784 643.46 391.96V392.131Z" fill="#EAEAEA"/>
<path d="M401.824 678.779C392.228 732.385 386.865 786.664 385.785 841.111L351.661 833.468C353.036 779.119 358.546 724.954 368.143 671.442L401.824 678.779Z" fill="#F4E87C"/>
<path d="M511.056 902.879C496.041 879.197 470.106 862.407 431.374 851.692C431.91 796.961 436.886 742.364 446.253 688.438L451.064 689.496C475.401 694.638 499.347 701.479 522.727 709.971C511.975 773.674 508.063 838.344 511.056 902.879Z" fill="#F4E87C"/>
<path d="M1131.65 250.307C927.211 250.307 792.69 387.455 791.359 598.382H958.913C960.21 474.372 1026.17 400.457 1131.69 400.457C1233.24 400.457 1292.59 462.428 1292.59 571.901C1292.59 664.243 1249.08 727.545 1118.55 838.349L803.235 1104.97V1231.6L1076.88 1231.06C1116.81 1186.7 1151.62 1131.93 1185.5 1073.33H1070.98L1245.02 924.275C1262.45 909.328 1278.87 894.757 1294.26 880.39C1400.29 781.428 1457.27 694 1464.44 586.506C1464.94 578.794 1465.2 570.979 1465.23 563.062C1465.33 367.697 1337.39 250.307 1131.65 250.307ZM1368.17 1073.33L1365.31 1078.49C1337.32 1128.62 1308.28 1180.86 1275.63 1230.65L1471.95 1230.27V1073.3L1368.17 1073.33ZM1276.89 1073.33C1245.63 1129.02 1214.3 1182.84 1179.39 1230.85H1233.99C1267.95 1180.93 1298.39 1127.05 1328.28 1073.44L1276.89 1073.33Z" fill="#EAEAEA"/>
<path d="M1368.17 1073.33L1365.3 1078.49C1337.32 1128.62 1308.28 1180.86 1275.62 1230.65H1233.96C1267.91 1180.72 1298.35 1126.84 1328.24 1073.23L1368.17 1073.33Z" fill="#F4E87C"/>
<path d="M1276.89 1073.33C1245.63 1129.02 1214.3 1182.84 1179.39 1230.85L1077.02 1231.06C1116.94 1186.7 1151.75 1131.92 1185.64 1073.33H1276.89Z" fill="#F4E87C"/>
<path d="M1626.23 267.438V318.045C1636.88 301.699 1648.38 284.705 1660.73 267.438H1626.23ZM2224.95 423.15V267.438H1866.09C1808.08 327.122 1758.63 403.938 1713.72 478.808C1684.49 527.447 1655.33 576.36 1626.23 625.545V1231.6H2224.95V1075.96H1794.98V820.023H2180.21V671.034H1794.98V423.15H2224.95ZM1819.14 267.438H1760.37C1711.4 328.044 1672.95 391.994 1645.47 437.721L1626.23 469.731V557.261C1645.41 525.047 1664.6 492.958 1683.8 460.995C1716.11 407.214 1760.85 332.685 1819.14 267.438Z" fill="#EAEAEA"/>
<path d="M1866.09 267.438C1808.08 327.122 1758.63 403.938 1713.72 478.808C1684.49 527.447 1655.33 576.36 1626.23 625.545V557.295C1645.41 525.081 1664.6 492.992 1683.8 461.029C1716.11 407.248 1760.99 332.719 1819.14 267.472L1866.09 267.438Z" fill="#F4E87C"/>
<path d="M1760.37 267.438C1711.4 328.044 1672.95 391.994 1645.47 437.721L1626.23 469.731V318.045C1636.88 301.699 1648.38 284.705 1660.73 267.438H1760.37Z" fill="#F4E87C"/>
<path d="M2408.37 1231.6V267.438H3007.16V423.15H2577.19V671.102H2962.32V820.16H2577.19V1076.1H3007.16V1231.74L2408.37 1231.6Z" fill="#EAEAEA"/>
</svg>
